# xmcd CD database file
#
# Track frame offsets:
#	150
#	45810
#	84863
#	128207
#	136053
#	195144
#	242285
#
# Disc length: 3779 seconds
#
# Revision: 0
# Processed by: cddbd v1.5PL3 Copyright (c) Steve Scherf et al.
# Submitted via: CDex 1.50
#
DISCID=3f0ec107
DTITLE=Pat Metheny Quartet - Germany, 07/05/03 [CD1/2)
DYEAR=2003
DGENRE=Jazz
TTITLE0=Soul Cowboy
TTITLE1=What do you Want
TTITLE2=James
TTITLE3=Intro Band
TTITLE4=Every Day I Thank You
TTITLE5=Song For Bill no. 2
TTITLE6=As I Am
EXTD=YEAR: 2003
EXTT0=
EXTT1=
EXTT2=
EXTT3=
EXTT4=
EXTT5=
EXTT6=
PLAYORDER=
